<svg width="16" height="16" viewBox="0 0 20 20" fill="none" xmlns="http://www.w3.org/2000/svg">
<g clip-path="url(#clip0)">
<path d="M17.1178 10.2255L4.24945 20L4.24945 0.450909L17.1178 10.2255ZM5.09854 18.2876L15.7145 10.2255L5.09891 2.16291L5.09891 18.2876H5.09854Z" fill="#00B140" stroke="#00B140" stroke-width="0.727273"/>
<path d="M5.05975 3.12274C5.15923 3.37436 5.33616 3.66606 5.39467 3.92937C5.40633 3.98181 5.46261 4.09448 5.44656 4.08504C5.20358 3.94211 5.0414 3.58373 5.1541 3.30199C5.26331 3.02896 5.83113 3.88264 5.85696 3.91994C6.04805 4.19596 6.00677 4.66352 6.1164 4.97187C6.29533 5.4751 6.09682 5.70826 6.07867 6.19834C6.06275 6.62795 6.07867 7.06096 6.07867 7.49085C6.07867 7.72138 5.90885 7.92019 5.90885 8.16541C5.90885 8.77342 5.73903 6.95731 5.73903 6.34929" stroke="#00B140" stroke-linecap="round" stroke-linejoin="round"/>
<path d="M5.82394 6.09456C5.97026 5.74925 6.10461 5.39996 6.24377 5.05206C6.35356 4.77759 6.24849 5.64328 6.24849 5.9389C6.24849 6.52416 6.32138 7.1594 6.20603 7.73615C6.19951 7.76874 6.05906 8.20728 6.03621 8.189C5.89202 8.07364 5.94054 7.20379 5.90885 7.0097C5.81543 6.43748 5.81322 5.86189 5.82394 5.28321C5.8296 4.97775 5.88799 4.66397 5.73903 4.37751C5.59645 4.10331 6.16734 4.33995 6.24377 4.40109C6.36812 4.50058 6.50454 4.76071 6.64001 4.82092C6.76992 4.87866 6.88328 4.96143 7.00795 5.02376C7.29531 5.16744 6.81176 4.41186 6.7202 4.10391C6.59165 3.6715 6.65201 3.18209 6.16358 3.37746C5.8088 3.51937 7.16158 4.76371 7.30514 4.94829C7.55617 5.27105 8.04955 5.44883 8.39009 5.68889C8.87916 6.03364 9.35443 6.3985 9.77694 6.82101C10.0092 7.05322 10.2503 7.27766 10.4515 7.53802C10.665 7.8143 11.0621 7.95383 11.244 8.22673C11.3417 8.37323 11.2443 8.52356 11.2817 8.67958C11.3347 8.90025 11.6332 9.00733 11.8053 9.10885C11.8822 9.15418 12.391 9.51312 12.3101 9.38716C11.8743 8.70931 11.5107 7.98034 11.1072 7.28329C10.9452 7.00349 10.3761 6.93293 10.3241 6.60402C10.3042 6.47788 9.96361 6.27442 10.0883 6.30212C10.2655 6.3415 10.6143 6.68392 10.7676 6.79271C11.2809 7.15701 11.6906 7.63641 12.2299 7.96257C12.6646 8.2255 13.0873 8.49157 13.5035 8.78336C13.627 8.86991 13.738 8.96544 13.8903 8.98148C14.2084 9.01496 14.5555 9.77951 14.6923 10.0334C14.8229 10.2761 14.2592 10.5109 14.0601 10.6325C13.6731 10.869 13.4046 10.9898 13.1073 11.3589C12.6903 11.8766 12.1423 12.5133 11.5789 12.8684C11.1598 13.1327 10.7764 13.3916 10.4043 13.694C9.97988 14.0388 9.38622 14.2639 9.01748 14.661C8.6155 15.0939 7.98239 15.3528 7.48439 15.6516C7.24234 15.7968 6.64027 16.1559 6.4985 16.4158C6.44461 16.5146 5.58235 17.9819 5.39939 17.9819C5.22958 17.9819 5.31448 16.2265 5.31448 16.0478C5.31448 15.5369 5.44794 15.0953 5.4843 14.6044C5.50994 14.2583 5.66079 13.9359 5.72959 13.609C5.85479 13.0144 5.87688 12.4223 6.03149 11.8259C6.19497 11.1954 6.16358 10.5749 6.16358 9.92492C6.16358 9.37338 6.30983 8.86932 6.40887 8.34938C6.53342 7.69551 6.02453 6.70814 5.82394 6.09456C5.64644 5.55164 5.54435 5.05037 5.31448 4.53317C5.23606 4.35672 5.27083 5.15994 5.27674 5.20302C5.37427 5.91355 5.6526 6.41751 5.97489 7.04744C6.2128 7.51244 6.15781 8.03785 6.39944 8.4909C6.62141 8.9071 6.66028 9.66076 6.67303 10.1325C6.67706 10.2814 6.77069 10.9818 6.65416 11.0853C6.48638 11.2345 6.04721 9.14739 5.94659 8.93431C5.87783 8.78871 5.89183 8.69845 5.91357 8.94846C5.93945 9.24608 5.99376 9.52481 5.99376 9.82586C5.99376 10.1238 5.94678 10.466 5.90413 10.7646C5.80193 11.48 5.7756 12.2276 5.90413 12.9345C6.06057 13.7949 5.66907 14.8592 5.97489 15.6893C6.03025 15.8396 5.70698 15.2778 5.67299 15.1799C5.50253 14.6889 5.56921 14.1252 5.56921 13.6138C5.56921 12.8339 5.56921 12.0539 5.56921 11.274C5.56921 10.6784 5.49547 10.0322 5.57393 9.44377C5.61635 9.12558 5.82394 8.84238 5.82394 8.5758C5.82394 8.20936 5.74595 7.73818 5.84281 7.38707C5.99546 6.83371 5.73903 6.35432 5.73903 5.8021C5.73903 5.46089 5.73903 5.11968 5.73903 4.77847C5.73903 4.53817 5.97639 4.74802 6.07867 4.81621C6.37688 5.01501 6.48167 5.17654 6.67303 5.49548C6.97979 6.00673 7.43722 6.43909 7.43722 7.0663C7.43722 7.67894 7.26496 8.2149 7.16362 8.81166C6.99441 9.80811 6.44117 8.4731 6.20131 8.10409C5.82612 7.52686 5.61384 6.94753 5.41826 6.30212C5.15723 5.44073 5.31448 8.10028 5.31448 9.00035C5.31448 9.28878 5.28897 9.59053 5.3192 9.87775C5.35107 10.1805 5.57996 10.3904 5.65884 10.6797C5.6884 10.7881 5.82394 11.1324 5.82394 11.1137C5.82394 9.94381 5.99209 8.86405 6.30981 7.73615C6.55527 6.86476 6.74449 6.27783 7.39476 5.62756C7.61434 5.40798 7.51939 6.37199 7.50797 6.47666C7.43681 7.129 7.13056 7.8165 6.97022 8.45788C6.96821 8.46591 6.68857 9.2953 6.60699 9.00979C6.44413 8.43978 7.05059 7.56406 7.33344 7.13235C7.41455 7.00855 7.89134 6.00184 7.86176 6.62289C7.8442 6.99167 7.64504 7.31107 7.48439 7.63237C7.22207 8.157 7.03195 8.71431 6.76738 9.23621C6.675 9.41844 6.18779 10.4541 5.87111 10.1561C5.46235 9.77135 6.13621 8.92043 6.39 8.63713C6.50242 8.51164 7.35231 7.56318 7.35231 8.1088C7.35231 8.42371 7.39245 8.7797 7.27212 9.08054C7.10835 9.48996 7.60774 8.25233 7.88063 7.90596C7.99615 7.75934 8.76724 6.74056 8.7769 6.80214C8.90852 7.64126 8.17921 8.42943 7.72968 9.04752C7.66152 9.14125 6.99516 10.0043 7.2391 9.36829C7.55174 8.55318 8.19701 7.94496 8.7769 7.32103C8.99735 7.08384 9.26019 6.75254 9.22031 7.25499C9.15011 8.13959 8.09693 9.20686 7.46552 9.74567C7.38467 9.81466 5.96228 10.877 5.92772 10.8118C5.68867 10.3602 7.10189 9.46027 7.2957 9.31169C7.53485 9.12834 10.2559 7.04311 10.3855 7.40594C10.6552 8.16132 9.49681 9.2021 9.08823 9.69378C8.59596 10.2862 7.98651 10.7247 7.4042 11.2174C7.14135 11.4398 7.63983 10.3019 7.66364 10.2646C8.23691 9.36453 9.15995 8.89649 9.79581 8.08522C9.95705 7.8795 9.95389 7.9475 9.88072 8.2173C9.63284 9.13136 8.45786 9.94467 7.79572 10.557C7.40425 10.9191 7.01001 11.2673 6.6353 11.642C6.30895 11.9683 7.03864 10.7872 7.37589 10.4721C8.03395 9.85735 8.8161 9.32685 9.58825 8.86355C9.85587 8.70298 9.64694 10.0625 9.61656 10.1702C9.41724 10.8769 8.83047 11.6511 8.29575 12.1562C7.88936 12.54 8.08822 11.9103 8.22499 11.6844C8.93031 10.5198 10.1903 9.12367 11.461 8.56165C11.9021 8.36655 11.6106 8.79481 11.494 8.93903C11.187 9.31869 10.783 9.55396 10.376 9.81171C9.39457 10.4333 8.48414 11.1478 7.55986 11.8495C7.52736 11.8742 6.73009 12.5698 6.6919 12.4062C6.39195 11.1207 10.5985 9.39596 10.6449 9.52868C10.7721 9.89197 9.97204 10.5111 9.75336 10.6844C8.94241 11.327 8.07523 11.8945 7.22494 12.4816C7.17766 12.5143 6.83349 12.9103 6.857 12.6986C6.92527 12.0843 8.03325 11.4991 8.475 11.1655C9.4879 10.4007 8.60371 12.086 8.39009 12.425C8.08022 12.9168 7.20676 13.4638 7.18249 14.0949C7.17757 14.2227 6.95203 14.8309 6.92776 14.5478C6.89546 14.171 6.71484 13.7979 6.65416 13.4156C6.6259 13.2375 6.58116 12.8748 6.48435 12.7175C6.46321 12.6832 6.4183 13.3462 6.4183 13.4392C6.4183 13.8213 6.4183 14.2034 6.4183 14.5855C6.4183 14.7547 6.52088 15.4884 6.37585 15.6044C6.19592 15.7484 6.36531 16.2428 6.16358 16.3639C6.0876 16.4095 5.72298 17.1317 5.65884 16.6186C5.61499 16.2678 6.11176 15.4813 6.4183 15.3025C6.65478 15.1646 6.85661 15.0001 7.07871 14.8402C7.22121 14.7376 7.12316 14.6091 7.22023 14.5006C7.53012 14.1542 7.76698 13.6829 8.03158 13.293C8.36168 12.8065 8.65669 12.2901 9.1354 11.9344C9.52468 11.6453 9.94412 11.7019 10.3241 11.4486C10.7375 11.173 11.1348 10.8998 11.5412 10.6042C11.9077 10.3377 12.2964 9.55035 12.2771 9.08526C12.2723 8.97075 11.859 9.63852 11.8148 9.69378C11.1237 10.5576 10.5653 11.5304 9.86657 12.3779C9.46865 12.8604 8.85724 13.4979 8.32877 13.8638C7.86965 14.1816 7.52246 14.3435 7.27212 14.8025C7.00022 15.301 7.32032 14.5855 7.60704 14.5855C7.78902 14.5855 7.82905 15.0899 7.8429 15.0761C7.97169 14.9473 8.04049 14.8134 8.2014 14.6704C8.31157 14.5725 8.4636 14.5491 8.52217 14.3968C8.59777 14.2003 8.72579 14.2271 8.81464 14.076C8.93773 13.8668 9.06215 13.8389 9.25805 13.727C9.31491 13.6945 9.438 13.5019 9.47976 13.4392C9.56183 13.3161 9.87463 13.1686 9.99393 13.0949C10.3457 12.8776 10.73 12.6612 11.0459 12.4156C11.2021 12.2941 11.4465 12.0011 11.6402 11.958C11.9759 11.8834 12.2697 11.197 12.6827 11.0382C13.1329 10.865 13.5507 10.7486 13.5507 10.208C13.5507 9.98416 13.5984 9.68829 13.5318 9.47207C13.4776 9.29577 13.4141 9.20037 13.2111 9.23621C13.1347 9.24968 13.2121 9.56471 13.1261 9.66076C12.8599 9.95829 12.8766 10.3647 12.6167 10.6325C12.3139 10.9445 11.9508 11.3614 11.7865 11.7646C11.7177 11.9333 11.42 12.2929 11.2157 12.2929C10.946 12.2929 10.9647 11.4998 11.0459 11.3212C11.1365 11.1217 11.1828 11.2358 11.1261 11.4061C11.0283 11.6993 10.8149 11.9758 10.6638 12.2458C10.6521 12.2666 10.4401 12.5639 10.5741 12.3826C10.844 12.0175 11.2522 11.819 11.6685 11.6656C12.5686 11.334 13.5156 11.1904 14.4281 10.9297C14.4532 10.9225 14.3179 10.7349 14.3149 10.6797C14.3052 10.506 14.4092 10.542 14.4658 10.4061C14.6177 10.0417 15.0123 10.3864 15.1828 10.5759C15.282 10.6861 14.7228 9.62662 14.9942 9.49094" stroke="#00B140" stroke-linecap="round" stroke-linejoin="round"/>
<path d="M14.3148 10.0004C13.9729 9.71761 13.6306 9.44691 13.2629 9.19847C13.0086 9.02664 12.847 8.88136 12.9988 9.26923C13.0412 9.37768 13.5196 10.0984 13.5035 10.0995C12.7703 10.1453 11.8382 9.21887 11.2392 8.87771C10.8791 8.67256 10.5097 8.4931 10.2015 8.2173C9.81084 7.8678 9.33865 7.65988 9.01273 7.24084C8.65263 6.77786 8.16554 6.49846 8.57875 5.9672C8.83485 5.63792 8.82105 5.37552 9.37123 5.58511C9.51959 5.64163 9.7574 5.73716 9.89956 5.75493C10.0723 5.77652 9.99449 6.01965 9.81465 6.00965C9.35665 5.98421 9.12902 5.64133 8.88065 5.36812C8.66157 5.12713 8.50044 4.64005 8.23911 4.49072C8.09613 4.40902 8.02746 4.37155 7.92777 4.22656C7.81789 4.06673 7.28989 4.12517 7.11642 4.07561C7.08546 4.06676 6.64586 3.93713 6.80508 3.89164C7.15358 3.79207 7.65259 4.372 7.93721 4.51431C8.12242 4.60691 8.19705 4.70531 8.37119 4.80205C8.46722 4.8554 8.8127 5.03754 8.86178 5.11339C8.97812 5.2932 9.48338 5.64264 9.72974 5.67002C9.93295 5.6926 9.84568 5.88919 10.0269 5.92946C10.1789 5.96323 10.391 6.2369 10.4986 6.34458C10.838 6.6839 11.4031 7.05908 11.8147 7.32103C12.4583 7.73055 12.9962 7.94833 13.5507 8.47203C13.9338 8.83386 14.6611 9.56648 15.1639 9.66076C15.261 9.67896 15.2237 9.77983 15.296 9.82114C15.3661 9.86121 15.445 9.79984 15.5036 9.87303C15.575 9.96228 15.6734 10.0944 15.6734 10.2127C15.6734 10.6348 15.1735 10.8069 14.862 11.0618C14.5793 11.2931 14.1891 11.3671 13.9941 11.6986C13.8881 11.8787 13.3837 12.1877 13.211 12.208C12.9792 12.2353 12.5734 12.5155 12.4091 12.6798C12.3178 12.7711 12.2543 12.8885 12.1497 12.9722C12.0663 13.0389 11.7963 13.1389 11.7676 13.1892C11.6128 13.46 11.0198 13.7367 10.7487 13.8874C10.4462 14.0554 10.1869 14.432 9.85711 14.5053C9.47318 14.5906 9.06226 15.1666 8.7297 15.3969C8.46071 15.5831 7.97445 15.658 7.79569 15.9441C7.62465 16.2177 7.24935 16.3026 7.01736 16.496C6.77894 16.6946 6.64181 17.0094 6.33337 17.1328C6.26317 17.1609 6.05539 17.318 5.99373 17.2837C5.87929 17.2202 5.57717 16.7591 5.56918 16.6233C5.5477 16.2581 5.56918 15.8855 5.56918 15.5195C5.56918 14.735 5.39936 15.8889 5.39936 16.1516C5.39936 16.8078 5.27163 16.2302 5.12577 16.0478C4.77924 15.6147 4.97482 14.5927 4.97482 14.0336C4.97482 12.447 4.97482 10.8605 4.97482 9.27395C4.97482 8.57828 5.05972 7.88373 5.05972 7.15593C5.05972 6.8347 5.11452 6.45483 5.04086 6.14174C4.97991 5.88274 4.81522 5.61497 4.805 5.34925C4.79126 4.99214 5.05548 5.19239 5.05972 5.16056C5.0982 4.87198 5.22954 4.67195 5.22954 4.35392C5.22954 4.22121 4.97621 4.31147 4.84745 4.31147C4.56588 4.31147 4.805 4.91775 4.805 4.60865C4.805 4.36672 4.56948 3.75504 4.99368 4.00957C5.3593 4.22894 5.294 3.44509 5.4654 3.27369C5.57742 3.16167 5.51822 3.01331 5.61635 2.91518C5.76698 2.76455 5.90636 2.80478 5.61164 2.57554C5.51238 2.49834 5.23837 2.59346 5.22954 2.44346C5.20992 2.10985 5.22954 2.36247 5.22954 2.54724C5.22954 2.87623 5.53982 3.1953 5.65409 3.50955C5.76187 3.80593 5.87871 4.12615 5.9041 4.44355C5.94474 4.95159 6.09751 5.34454 6.17298 5.83512C6.22136 6.14957 6.33337 6.366 6.33337 6.7078C6.33337 7.06069 6.36726 7.43373 6.3145 7.78332C6.19595 8.56871 6.24846 9.37655 6.24846 10.1702C6.24846 11.1948 6.16355 12.2622 6.16355 13.3119C6.16355 13.7293 6.26664 14.2899 6.09751 14.6704C5.98257 14.929 5.90455 15.301 5.82863 15.5667C5.74252 15.8681 5.84219 16.2608 5.63522 16.5196C5.48666 16.7053 5.1576 17.0692 5.14463 17.3026C5.12707 17.6188 5.0223 17.9187 4.9701 18.2319C4.92802 18.4844 4.805 17.85 4.805 17.7696C4.805 17.57 4.75416 17.2895 4.80971 17.095C4.86011 16.9187 5.12076 16.5293 5.24841 16.3875C5.58956 16.0084 5.73489 15.463 5.99373 15.0101" stroke="#00B140" stroke-linecap="round" stroke-linejoin="round"/>
<path d="M4.805 15.9441C4.69075 16.2368 4.63518 16.4478 4.63518 16.7507C4.63518 17.0101 4.6256 17.0718 4.63518 16.746C4.646 16.3782 4.87596 16.0708 4.97482 15.7742" stroke="#00B140" stroke-linecap="round" stroke-linejoin="round"/>
</g>
<defs>
<clipPath id="clip0">
<rect width="20" height="20" fill="white" transform="translate(0 20) rotate(-90)"/>
</clipPath>
</defs>
</svg>
